# xmcd CD database file
#
# Track frame offsets:
#	150
#	19325
#	35665
#	49280
#	62725
#	84060
#	102260
#	115485
#	132140
#	161665
#	184635
#	207050
#	238315
#	254555
#	274550
#	296355
#
# Disc length: 4168 seconds
#
# Revision: 0
# Processed by: cddbd v1.5.2PL0 Copyright (c) Steve Scherf et al.
# Submitted via: CDex 1.50
#
DISCID=e4104610
DTITLE=Anatoly Kroll's MKC Big Band - Дни Вина и Роз
DYEAR=1996
DGENRE=Jazz
TTITLE0=Candy (D. Holms)
TTITLE1=Johnson Rag (H. Kleinkauf)
TTITLE2=For All We Know (Coots, Lewis)
TTITLE3=More (Ortolani - Olvero - Giorstiolini - Newell)
TTITLE4=A Portrait Of Jenny (B. Burge)
TTITLE5=Without A Song (V. Joumans)
TTITLE6=Count The Aces (S. Nestico)
TTITLE7=I Can't Get Sterted (V. Duke)
TTITLE8=All Blues (M. Davis)
TTITLE9=A Warm Breeze (S. Nestico)
TTITLE10=I'm Getting Sentimental Over You (G. Basman - N. Washington)
TTITLE11=Better Get it in Your Soul (Ch. Mingus)
TTITLE12=Four Brothers (J Gioffre, J. Hendricks)
TTITLE13=Open I Invitation (D. Meaden, L. Kinhan)
TTITLE14=Sassy (J. Segal)
TTITLE15=The Days Of Wine and Roses (H. Mancini)
EXTD=YEAR: 1996
EXTT0=
EXTT1=
EXTT2=
EXTT3=
EXTT4=
EXTT5=
EXTT6=
EXTT7=
EXTT8=
EXTT9=
EXTT10=
EXTT11=
EXTT12=
EXTT13=
EXTT14=
EXTT15=
PLAYORDER=
